<svg width="21" height="21" viewBox="0 0 21 21" fill="none" xmlns="http://www.w3.org/2000/svg">
<g clip-path="url(#clip0_239_1021)">
<path d="M0.5 10.3879C0.579 10.1052 0.738625 9.85166 0.959375 9.65822C1.15904 9.49476 1.40439 9.39709 1.66177 9.37863C1.91914 9.36017 2.17593 9.42181 2.39688 9.55509C3.2002 10.013 3.9276 10.5928 4.55312 11.2738C5.31958 12.0791 6.00904 12.9542 6.6125 13.8879C6.63906 13.9285 6.66875 13.966 6.7 14.0082C6.98594 13.4723 7.25312 12.9379 7.55 12.4192C9.25 9.42853 11.4375 6.86603 14.275 4.89415C15.6529 3.94653 17.1462 3.17886 18.7188 2.60978C19.6187 2.27853 20.45 2.89415 20.4719 3.68947C20.4772 3.71335 20.4867 3.7361 20.5 3.75665V3.79415C20.4828 3.87072 20.4688 3.9504 20.45 4.02384C20.4059 4.23913 20.3052 4.43877 20.1583 4.60218C20.0113 4.76559 19.8235 4.88688 19.6141 4.95353C18.1949 5.45211 16.8511 6.14348 15.6203 7.00822C13.5601 8.47524 11.8038 10.3276 10.4484 12.4629C9.4605 13.9646 8.66422 15.5839 8.07812 17.2832C8.01041 17.4963 7.8846 17.6862 7.71484 17.8317C7.54508 17.9772 7.33811 18.0724 7.11719 18.1067C7.08302 18.1162 7.0496 18.1282 7.01719 18.1426H6.79219C6.77656 18.1332 6.7625 18.1176 6.74531 18.1145C6.52743 18.0859 6.3206 18.0015 6.14487 17.8696C5.96913 17.7377 5.83043 17.5626 5.74219 17.3613C5.08831 16.0652 4.29621 14.8435 3.37969 13.7176C2.79219 13.0098 2.16875 12.3317 1.36875 11.8613C0.95625 11.6192 0.635937 11.3395 0.5 10.8738V10.3879Z" fill="#17D647"/>
</g>
<defs>
<clipPath id="clip0_239_1021">
<rect width="20" height="20" fill="white" transform="translate(0.5 0.330078)"/>
</clipPath>
</defs>
</svg>
