<svg width="17" height="17" viewBox="0 0 17 17" fill="none" xmlns="http://www.w3.org/2000/svg">
<g clip-path="url(#clip0_239_1036)">
<path d="M9.92482 8.3299L16.2048 2.0499C16.3938 1.86093 16.4999 1.60464 16.4999 1.3374C16.4999 1.07016 16.3938 0.813867 16.2048 0.6249C16.0159 0.435933 15.7596 0.329773 15.4923 0.329773C15.2251 0.329773 14.9688 0.435933 14.7798 0.6249L8.49982 6.9049L2.21982 0.6249C2.03086 0.435933 1.77456 0.329773 1.50732 0.329773C1.24008 0.329773 0.983789 0.435933 0.794822 0.6249C0.605855 0.813867 0.499695 1.07016 0.499695 1.3374C0.499695 1.60464 0.605855 1.86093 0.794822 2.0499L7.07482 8.3299L0.794822 14.6099C0.605855 14.7989 0.499695 15.0552 0.499695 15.3224C0.499695 15.5896 0.605855 15.8459 0.794822 16.0349C0.983789 16.2239 1.24008 16.33 1.50732 16.33C1.77456 16.33 2.03086 16.2239 2.21982 16.0349L8.49982 9.7549L14.7798 16.0349C14.9688 16.2239 15.2251 16.33 15.4923 16.33C15.7596 16.33 16.0159 16.2239 16.2048 16.0349C16.3938 15.8459 16.4999 15.5896 16.4999 15.3224C16.4999 15.0552 16.3938 14.7989 16.2048 14.6099L9.92482 8.3299Z" fill="#17D647"/>
</g>
<defs>
<clipPath id="clip0_239_1036">
<rect width="16" height="16" fill="white" transform="translate(0.5 0.330078)"/>
</clipPath>
</defs>
</svg>
