<svg width="24" height="25" viewBox="0 0 24 25" fill="none" xmlns="http://www.w3.org/2000/svg">
<path d="M19 11.3301H13V5.33008C13 5.06486 12.8946 4.81051 12.7071 4.62297C12.5196 4.43544 12.2652 4.33008 12 4.33008C11.7348 4.33008 11.4804 4.43544 11.2929 4.62297C11.1054 4.81051 11 5.06486 11 5.33008V11.3301H5C4.73478 11.3301 4.48043 11.4354 4.29289 11.623C4.10536 11.8105 4 12.0649 4 12.3301C4 12.5953 4.10536 12.8496 4.29289 13.0372C4.48043 13.2247 4.73478 13.3301 5 13.3301H11V19.3301C11 19.5953 11.1054 19.8496 11.2929 20.0372C11.4804 20.2247 11.7348 20.3301 12 20.3301C12.2652 20.3301 12.5196 20.2247 12.7071 20.0372C12.8946 19.8496 13 19.5953 13 19.3301V13.3301H19C19.2652 13.3301 19.5196 13.2247 19.7071 13.0372C19.8946 12.8496 20 12.5953 20 12.3301C20 12.0649 19.8946 11.8105 19.7071 11.623C19.5196 11.4354 19.2652 11.3301 19 11.3301Z" fill="#222222"/>
</svg>
