<svg width="62" height="61" viewBox="0 0 62 61" fill="none" xmlns="http://www.w3.org/2000/svg">
<rect x="0.5" width="61" height="61" rx="30.5" fill="#222222"/>
<path d="M34.0625 49.8125H26.9375C26.282 49.8125 25.75 49.2805 25.75 48.625V35.5625C25.75 34.907 26.282 34.375 26.9375 34.375H34.0625C34.718 34.375 35.25 34.907 35.25 35.5625V48.625C35.25 49.2805 34.718 49.8125 34.0625 49.8125ZM28.125 47.4375H32.875V36.75H28.125V47.4375ZM21 49.8125H13.875C13.2195 49.8125 12.6875 49.2805 12.6875 48.625V40.3125C12.6875 39.657 13.2195 39.125 13.875 39.125H21C21.6555 39.125 22.1875 39.657 22.1875 40.3125V48.625C22.1875 49.2805 21.6555 49.8125 21 49.8125ZM15.0625 47.4375H19.8125V41.5H15.0625V47.4375ZM47.125 49.8125H40C39.3445 49.8125 38.8125 49.2805 38.8125 48.625V28.4375C38.8125 27.782 39.3445 27.25 40 27.25H47.125C47.7805 27.25 48.3125 27.782 48.3125 28.4375V48.625C48.3125 49.2805 47.7805 49.8125 47.125 49.8125ZM41.1875 47.4375H45.9375V29.625H41.1875V47.4375Z" fill="white"/>
<path d="M48.2947 15.2883C48.2887 15.2064 48.2697 15.1304 48.2472 15.0508C48.2258 14.9784 48.2068 14.9095 48.1736 14.8442C48.1403 14.7777 48.0964 14.7207 48.0501 14.6613C48.0002 14.596 47.9503 14.5366 47.8874 14.4832C47.8636 14.463 47.8517 14.4357 47.8268 14.4167C47.79 14.3894 47.7461 14.3834 47.7069 14.3609C47.638 14.3205 47.5691 14.2861 47.4919 14.2611C47.4124 14.235 47.3352 14.2219 47.2532 14.2136C47.2081 14.2089 47.1701 14.1875 47.125 14.1875H40C39.3445 14.1875 38.8125 14.7195 38.8125 15.375C38.8125 16.0305 39.3445 16.5625 40 16.5625H44.5873C40.6674 20.9467 29.6343 31.4929 13.8382 31.9822C13.1827 32.0024 12.6673 32.5498 12.6875 33.2053C12.7077 33.8489 13.2349 34.356 13.875 34.356C13.8869 34.356 13.8999 34.356 13.9118 34.356C30.2067 33.8513 41.4606 23.5687 45.9375 18.643V22.5C45.9375 23.1555 46.4695 23.6875 47.125 23.6875C47.7805 23.6875 48.3125 23.1555 48.3125 22.5V15.375C48.3125 15.3441 48.2971 15.318 48.2947 15.2883Z" fill="#FDBB3B"/>
</svg>
