<svg width="62" height="61" viewBox="0 0 62 61" fill="none" xmlns="http://www.w3.org/2000/svg">
<rect x="0.5" width="61" height="61" rx="30.5" fill="#222222"/>
<path d="M30.5 37.8187C29.8107 37.8219 29.1292 37.6718 28.505 37.3794L18.625 32.8194V38.3531C18.6259 38.813 18.7597 39.2629 19.0105 39.6485C19.2612 40.034 19.6181 40.3389 20.0381 40.5262L29.5381 44.7419C29.8393 44.8826 30.1676 44.9556 30.5 44.9556C30.8324 44.9556 31.1607 44.8826 31.4619 44.7419L40.9619 40.5262C41.3819 40.3389 41.7388 40.034 41.9895 39.6485C42.2403 39.2629 42.3741 38.813 42.375 38.3531V32.8194L32.495 37.3794C31.8693 37.6675 31.1889 37.8174 30.5 37.8187Z" fill="#FDBB3B"/>
<path d="M45.833 25.502L31.4963 19.2771C31.1844 19.1322 30.8445 19.0571 30.5006 19.0571C30.1566 19.0571 29.8168 19.1322 29.5049 19.2771L17.0017 25.046C16.6191 25.211 16.2843 25.4699 16.0283 25.7987C15.7724 26.1275 15.6036 26.5156 15.5375 26.927C15.466 27.4315 15.5597 27.9457 15.8045 28.3926C16.0494 28.8395 16.4323 29.1952 16.896 29.4065L29.5001 35.2252C29.8121 35.3692 30.1516 35.4438 30.4952 35.4438C30.8389 35.4438 31.1784 35.3692 31.4904 35.2252L44.75 29.1061V34.375C44.75 34.6899 44.8751 34.992 45.0978 35.2147C45.3205 35.4374 45.6225 35.5625 45.9375 35.5625C46.2524 35.5625 46.5545 35.4374 46.7772 35.2147C46.9999 34.992 47.125 34.6899 47.125 34.375V27.4709C47.125 27.0525 47.0028 26.6432 46.7732 26.2934C46.5437 25.9435 46.2168 25.6685 45.833 25.502Z" fill="white"/>
</svg>
