<svg width="62" height="61" viewBox="0 0 62 61" fill="none" xmlns="http://www.w3.org/2000/svg">
<rect x="0.5" width="61" height="61" rx="30.5" fill="#222222"/>
<path d="M44.0541 21.4194L30.9916 15.4819C30.6781 15.3394 30.3219 15.3394 30.0084 15.4819L16.9459 21.4194C16.5219 21.6118 16.25 22.0345 16.25 22.5V25.8535C16.25 33.064 19.4396 39.8351 24.9971 44.4284L29.7424 48.3531C29.9633 48.5336 30.2304 48.625 30.5 48.625C30.7696 48.625 31.0367 48.5336 31.2564 48.3531L36.0029 44.4296C41.5616 39.8339 44.75 33.064 44.75 25.8535V22.5C44.75 22.0345 44.4781 21.6118 44.0541 21.4194ZM42.375 25.8535C42.375 32.3527 39.5013 38.4564 34.49 42.5984L30.5 45.8973L26.5112 42.5984C21.4999 38.4576 18.625 32.3539 18.625 25.8535V23.2648L30.5 17.8676L42.375 23.2648V25.8535Z" fill="white"/>
<path d="M27.207 22.9346C26.9826 23.2089 26.8912 23.5711 26.9612 23.9203L29.3362 35.7952C29.4467 36.351 29.9335 36.75 30.5 36.75C31.0664 36.75 31.5533 36.351 31.6637 35.7952L34.0387 23.9203C34.1088 23.5711 34.0174 23.2089 33.7929 22.9346C33.5673 22.6591 33.2312 22.5 32.875 22.5H28.125C27.7687 22.5 27.4327 22.6591 27.207 22.9346ZM31.4262 24.875L30.5 29.5074L29.5737 24.875H31.4262Z" fill="#FDBB3B"/>
<path d="M30.5 42.6875C31.8117 42.6875 32.875 41.6242 32.875 40.3125C32.875 39.0008 31.8117 37.9375 30.5 37.9375C29.1883 37.9375 28.125 39.0008 28.125 40.3125C28.125 41.6242 29.1883 42.6875 30.5 42.6875Z" fill="#FDBB3B"/>
</svg>
