<svg width="62" height="61" viewBox="0 0 62 61" fill="none" xmlns="http://www.w3.org/2000/svg">
<rect x="0.5" width="61" height="61" rx="30.5" fill="#222222"/>
<path d="M45.5898 16.9101C43.4863 14.8068 40.0762 14.8068 37.9729 16.9101L27.8791 27.0039C27.7487 27.1343 27.6505 27.2932 27.5922 27.4681L24.6235 36.3743C24.4812 36.801 24.5923 37.2715 24.9103 37.5895C25.2284 37.9075 25.6988 38.0187 26.1256 37.8764L35.0318 34.9077C35.2067 34.8494 35.3657 34.7511 35.4961 34.6208L45.5898 24.527C47.6931 22.4237 47.6931 19.0135 45.5898 16.9101Z" fill="#FDBB3B"/>
<path d="M42.3437 31.1318C42.3645 31.4185 42.375 31.708 42.375 32C42.375 38.5583 37.0583 43.875 30.5 43.875C23.9416 43.875 18.625 38.5583 18.625 32C18.625 25.4416 23.9416 20.125 30.5 20.125C30.7919 20.125 31.0814 20.1355 31.368 20.1562L33.4653 18.059C32.5088 17.8565 31.5168 17.75 30.5 17.75C22.6299 17.75 16.25 24.1299 16.25 32C16.25 39.87 22.6299 46.25 30.5 46.25C38.37 46.25 44.75 39.87 44.75 32C44.75 30.9831 44.6436 29.9911 44.441 29.0345L42.3437 31.1318Z" fill="white"/>
</svg>
