<svg width="62" height="61" viewBox="0 0 62 61" fill="none" xmlns="http://www.w3.org/2000/svg">
<rect x="0.5" width="61" height="61" rx="30.5" fill="#222222"/>
<path d="M26.2547 25.9794L22.6922 37.0944C22.671 37.1562 22.6649 37.2221 22.6741 37.2867C22.6834 37.3513 22.7079 37.4128 22.7456 37.4661C22.7833 37.5195 22.833 37.5631 22.8908 37.5934C22.9487 37.6238 23.0128 37.64 23.0781 37.6407H24.0756C24.1647 37.6404 24.2512 37.6113 24.3224 37.5578C24.3935 37.5043 24.4455 37.4292 24.4705 37.3438L25.0286 35.5625H29.9062L29.838 35.4527L30.4495 37.3438C30.4745 37.4292 30.5265 37.5043 30.5976 37.5578C30.6688 37.6113 30.7553 37.6404 30.8444 37.6407H31.8419C31.9072 37.641 31.9717 37.6259 32.0301 37.5965C32.0884 37.5671 32.1389 37.5242 32.1775 37.4715C32.216 37.4187 32.2415 37.3576 32.2518 37.2931C32.2621 37.2285 32.2569 37.1625 32.2367 37.1004L28.6742 25.9854C28.6488 25.9001 28.5968 25.8253 28.5257 25.7719C28.4546 25.7185 28.3683 25.6892 28.2794 25.6885H26.6406C26.5539 25.6902 26.4699 25.7193 26.4006 25.7715C26.3313 25.8238 26.2803 25.8965 26.2547 25.9794ZM25.6223 33.7813L27.46 28.0605L29.3125 33.7813H25.6223Z" fill="white"/>
<path d="M36.3187 25.6914H35.3688C35.1392 25.6914 34.9531 25.8775 34.9531 26.107V37.222C34.9531 37.4516 35.1392 37.6377 35.3688 37.6377H36.3187C36.5483 37.6377 36.7344 37.4516 36.7344 37.222V26.107C36.7344 25.8775 36.5483 25.6914 36.3187 25.6914Z" fill="white"/>
<path d="M31.4678 42.0938H22.8288C22.1863 42.0938 21.5701 41.8385 21.1158 41.3842C20.6615 40.9299 20.4062 40.3137 20.4062 39.6713V24.3288C20.4062 23.6863 20.6615 23.0701 21.1158 22.6158C21.5701 22.1615 22.1863 21.9063 22.8288 21.9063H38.1712C38.8137 21.9063 39.4299 22.1615 39.8842 22.6158C40.3385 23.0701 40.5938 23.6863 40.5938 24.3288V32C40.5992 32.162 40.6684 32.3152 40.7862 32.4264C40.9041 32.5376 41.0611 32.5978 41.2231 32.5938C41.7287 32.5922 42.2276 32.7081 42.6808 32.9322C42.7748 32.9805 42.8798 33.0035 42.9854 32.9991C43.0911 32.9947 43.1937 32.963 43.2834 32.9071C43.3732 32.8511 43.4468 32.7729 43.4973 32.68C43.5478 32.5871 43.5733 32.4827 43.5714 32.377V24.3288C43.5714 23.62 43.4317 22.9182 43.1602 22.2636C42.8887 21.6089 42.4908 21.0142 41.9892 20.5134C41.4876 20.0127 40.8923 19.6157 40.2371 19.3453C39.582 19.0749 38.88 18.9363 38.1712 18.9375H22.8288C21.3989 18.9375 20.0276 19.5055 19.0166 20.5166C18.0055 21.5276 17.4375 22.8989 17.4375 24.3288V39.6713C17.4375 41.1011 18.0055 42.4724 19.0166 43.4834C20.0276 44.4945 21.3989 45.0625 22.8288 45.0625H32.7147C32.8362 45.0627 32.955 45.0268 33.0561 44.9595C33.1572 44.8921 33.2361 44.7964 33.2828 44.6842C33.3295 44.5721 33.3419 44.4486 33.3184 44.3294C33.295 44.2102 33.2368 44.1007 33.1511 44.0145C32.6892 43.5907 32.315 43.0803 32.0497 42.5124C32.0072 42.3914 31.9286 42.2865 31.8245 42.2116C31.7205 42.1367 31.596 42.0956 31.4678 42.0938Z" fill="white"/>
<path d="M44.6698 43.2219L47.3595 42.1621C47.4149 42.1402 47.4624 42.1022 47.4959 42.0529C47.5294 42.0037 47.5473 41.9455 47.5473 41.886C47.5473 41.8264 47.5294 41.7683 47.4959 41.719C47.4624 41.6698 47.4149 41.6318 47.3595 41.6099L44.6698 40.5501C44.1937 40.3618 43.7613 40.0779 43.3992 39.7158C43.0372 39.3538 42.7533 38.9213 42.565 38.4452L41.5052 35.7733C41.4832 35.7181 41.4451 35.6707 41.3959 35.6374C41.3466 35.604 41.2885 35.5862 41.2291 35.5863C41.1696 35.5862 41.1115 35.604 41.0623 35.6374C41.013 35.6707 40.975 35.7181 40.953 35.7733L39.8931 38.4452C39.7053 38.9216 39.4216 39.3543 39.0595 39.7164C38.6974 40.0785 38.2647 40.3623 37.7883 40.5501L35.1164 41.6099C35.061 41.6318 35.0135 41.6698 34.98 41.719C34.9466 41.7683 34.9286 41.8264 34.9286 41.886C34.9286 41.9455 34.9466 42.0037 34.98 42.0529C35.0135 42.1022 35.061 42.1402 35.1164 42.1621L37.7883 43.2219C38.2647 43.4097 38.6974 43.6935 39.0595 44.0556C39.4216 44.4177 39.7053 44.8504 39.8931 45.3268L40.953 47.9986C40.9745 48.0544 41.0124 48.1024 41.0616 48.1363C41.1109 48.1702 41.1693 48.1885 41.2291 48.1886C41.2889 48.1885 41.3472 48.1702 41.3965 48.1363C41.4457 48.1024 41.4836 48.0544 41.5052 47.9986L42.565 45.3268C42.7533 44.8506 43.0372 44.4182 43.3992 44.0561C43.7613 43.6941 44.1937 43.4102 44.6698 43.2219Z" fill="#FDBB3B"/>
</svg>
