<svg width="61" height="61" viewBox="0 0 61 61" fill="none" xmlns="http://www.w3.org/2000/svg">
<rect width="61" height="61" rx="30.5" fill="#F6F6F6"/>
<path fill-rule="evenodd" clip-rule="evenodd" d="M16.4731 17.9731C18.0364 16.4098 20.9668 16.0576 24.8683 17.3581C27.2146 18.1402 29.775 19.4841 32.3278 21.3298C33.0347 20.9236 33.6257 20.3414 34.0426 19.6415C31.2134 17.5511 28.3237 16.0064 25.6194 15.105C21.45 13.7152 17.3358 13.7517 14.7937 16.2937C12.2517 18.8357 12.2152 22.95 13.605 27.1194C14.1317 28.6993 14.8779 30.3425 15.8242 32C14.8779 33.6574 14.1317 35.3006 13.605 36.8806C12.2152 41.05 12.2517 45.1642 14.7937 47.7063C17.3358 50.2483 21.45 50.2847 25.6194 48.895C27.1994 48.3683 28.8426 47.6221 30.5 46.6758C32.1575 47.6221 33.8007 48.3683 35.3806 48.895C39.55 50.2847 43.6643 50.2483 46.2063 47.7063C48.7483 45.1642 48.7848 41.05 47.395 36.8806C46.8683 35.3006 46.1221 33.6574 45.1758 32C46.1221 30.3425 46.8683 28.6993 47.395 27.1194C48.7848 22.95 48.7483 18.8357 46.2063 16.2937C45.7425 15.8299 44.9907 15.8299 44.5269 16.2937C44.0632 16.7574 44.0632 17.5093 44.5269 17.9731C46.0902 19.5363 46.4424 22.4667 45.1419 26.3683C44.7857 27.4368 44.313 28.5496 43.7295 29.686C42.3509 27.6571 40.6869 25.6409 38.773 23.727C38.6918 23.6458 38.6105 23.565 38.5289 23.4848C37.792 23.8288 37.1597 24.3551 36.6886 25.0068C36.824 25.1386 36.9591 25.2718 37.0936 25.4064C39.2285 27.5412 41.0125 29.7877 42.4062 32C41.0125 34.2122 39.2285 36.4587 37.0936 38.5936C34.9588 40.7285 32.7123 42.5125 30.5 43.9062C28.2878 42.5125 26.0412 40.7285 23.9064 38.5936C21.7715 36.4587 19.9875 34.2122 18.5938 32C19.9875 29.7877 21.7715 27.5412 23.9064 25.4064C24.3701 24.9426 24.3701 24.1907 23.9064 23.727C23.4426 23.2632 22.6908 23.2632 22.227 23.727C20.3131 25.6409 18.6491 27.6571 17.2705 29.686C16.687 28.5496 16.2143 27.4368 15.8582 26.3683C14.5576 22.4667 14.9098 19.5363 16.4731 17.9731ZM38.773 40.273C40.6869 38.359 42.3509 36.3429 43.7295 34.314C44.313 35.4503 44.7857 36.5632 45.1419 37.6316C46.4424 41.5332 46.0902 44.4636 44.5269 46.0269C42.9636 47.5901 40.0333 47.9423 36.1317 46.6419C35.0632 46.2857 33.9503 45.813 32.814 45.2295C34.8429 43.8509 36.8591 42.1869 38.773 40.273ZM22.227 40.273C24.1409 42.1869 26.1571 43.8509 28.186 45.2295C27.0497 45.813 25.9368 46.2857 24.8683 46.6419C20.9668 47.9423 18.0364 47.5901 16.4731 46.0269C14.9098 44.4636 14.5576 41.5332 15.8582 37.6316C16.2143 36.5632 16.687 35.4503 17.2705 34.314C18.6491 36.3429 20.3131 38.359 22.227 40.273Z" fill="black"/>
<path fill-rule="evenodd" clip-rule="evenodd" d="M35.25 14.1875C35.8044 14.1875 36.285 14.5711 36.4079 15.1117L37.065 18.0011C37.3689 19.3376 38.4124 20.3811 39.7489 20.685L42.6383 21.3421C43.1789 21.465 43.5625 21.9456 43.5625 22.5C43.5625 23.0544 43.1789 23.535 42.6383 23.6579L39.7489 24.315C38.4124 24.6189 37.3689 25.6624 37.065 26.9989L36.4079 29.8883C36.285 30.4289 35.8044 30.8125 35.25 30.8125C34.6956 30.8125 34.215 30.4289 34.0921 29.8883L33.435 26.9989C33.1311 25.6624 32.0876 24.6189 30.7511 24.315L27.8617 23.6579C27.3211 23.535 26.9375 23.0544 26.9375 22.5C26.9375 21.9456 27.3211 21.465 27.8617 21.3421L30.7511 20.685C32.0876 20.3811 33.1311 19.3376 33.435 18.0011L34.0921 15.1117C34.215 14.5711 34.6956 14.1875 35.25 14.1875ZM35.25 19.9103C34.6816 21.0241 33.7741 21.9316 32.6603 22.5C33.7741 23.0684 34.6816 23.9759 35.25 25.0897C35.8184 23.9759 36.7259 23.0684 37.8397 22.5C36.7259 21.9316 35.8184 21.0241 35.25 19.9103Z" fill="#FDBB3B"/>
</svg>
