<svg width="61" height="61" viewBox="0 0 61 61" fill="none" xmlns="http://www.w3.org/2000/svg">
<rect width="61" height="61" rx="30.5" fill="#F6F6F6"/>
<path d="M42.75 29C42.75 21.1299 36.3701 14.75 28.5 14.75V30.5833L36.3798 40.875C40.2194 38.322 42.75 33.9566 42.75 29Z" fill="#FDBB3B"/>
<path fill-rule="evenodd" clip-rule="evenodd" d="M28.5 15.5417C21.0672 15.5417 15.0417 21.5672 15.0417 29C15.0417 36.4328 21.0672 42.4584 28.5 42.4584C28.9372 42.4584 29.2917 42.8129 29.2917 43.25C29.2917 43.6872 28.9372 44.0417 28.5 44.0417C20.1927 44.0417 13.4583 37.3073 13.4583 29C13.4583 20.6928 20.1927 13.9584 28.5 13.9584C36.8073 13.9584 43.5417 20.6928 43.5417 29C43.5417 34.2159 40.8861 38.8113 36.857 41.5084C36.5107 41.74 36.0441 41.6639 35.7897 41.3339L27.873 31.0668C27.7663 30.9282 27.7083 30.7583 27.7083 30.5834V21.0834C27.7083 20.6462 28.0628 20.2917 28.5 20.2917C28.9372 20.2917 29.2917 20.6462 29.2917 21.0834V30.3136L36.5791 39.7647C39.8471 37.308 41.9583 33.4004 41.9583 29C41.9583 21.5672 35.9328 15.5417 28.5 15.5417Z" fill="black"/>
</svg>
