<svg width="61" height="61" viewBox="0 0 61 61" fill="none" xmlns="http://www.w3.org/2000/svg">
<rect width="61" height="61" rx="30.5" fill="#F6F6F6"/>
<path d="M44.5898 14.9101C42.4863 12.8068 39.0762 12.8068 36.9729 14.9101L26.8791 25.0039C26.7487 25.1343 26.6505 25.2932 26.5922 25.4681L23.6235 34.3743C23.4812 34.801 23.5923 35.2715 23.9103 35.5895C24.2284 35.9075 24.6988 36.0187 25.1256 35.8764L34.0318 32.9077C34.2067 32.8494 34.3657 32.7511 34.4961 32.6208L44.5898 22.527C46.6931 20.4237 46.6931 17.0135 44.5898 14.9101Z" fill="#FDBB3B"/>
<path d="M41.3437 29.1318C41.3645 29.4185 41.375 29.708 41.375 30C41.375 36.5583 36.0583 41.875 29.5 41.875C22.9416 41.875 17.625 36.5583 17.625 30C17.625 23.4416 22.9416 18.125 29.5 18.125C29.7919 18.125 30.0814 18.1355 30.368 18.1562L32.4653 16.059C31.5088 15.8565 30.5168 15.75 29.5 15.75C21.6299 15.75 15.25 22.1299 15.25 30C15.25 37.87 21.6299 44.25 29.5 44.25C37.37 44.25 43.75 37.87 43.75 30C43.75 28.9831 43.6436 27.9911 43.441 27.0345L41.3437 29.1318Z" fill="#212121"/>
</svg>
