<svg width="61" height="61" viewBox="0 0 61 61" fill="none" xmlns="http://www.w3.org/2000/svg">
<rect width="61" height="61" rx="30.5" fill="#F6F6F6"/>
<path d="M35.5062 19.5891C35.3281 18.6094 34.9422 17.7188 34.4078 16.9469C34.4969 16.8578 34.5562 16.7391 34.6453 16.65C34.8531 16.3828 35.0906 16.086 35.2984 15.7891L33.6656 14.1563C33.3688 14.3641 33.1016 14.5719 32.8047 14.8094C32.7156 14.8985 32.5969 14.9578 32.5078 15.0469C31.7359 14.5125 30.8156 14.1266 29.8656 13.9485C29.8656 13.8297 29.8359 13.6813 29.8063 13.5625C29.7766 13.2063 29.7172 12.85 29.6578 12.4938H27.3422C27.2828 12.85 27.2234 13.2063 27.1937 13.5625C27.1641 13.6813 27.1641 13.8297 27.1344 13.9485C26.1547 14.1266 25.2641 14.5125 24.4922 15.0469C24.4031 14.9578 24.2844 14.8985 24.1953 14.8094C23.9281 14.6016 23.6312 14.3641 23.3344 14.1563L21.7016 15.7891C21.9094 16.086 22.1172 16.3531 22.3547 16.65C22.4437 16.7391 22.5031 16.8578 22.5922 16.9469C22.0578 17.7188 21.6719 18.6391 21.4938 19.5891C21.375 19.5891 21.2266 19.6188 21.1078 19.6485C20.7516 19.6781 20.3953 19.7375 20.0391 19.7969V22.1125C20.3953 22.1719 20.7516 22.2313 21.1078 22.261C21.2266 22.2906 21.375 22.2906 21.4938 22.3203C21.6719 23.3 22.0578 24.1906 22.5922 24.9625C22.5031 25.0516 22.4437 25.1703 22.3547 25.2594C22.1469 25.5266 21.9094 25.8235 21.7313 26.1203L23.3641 27.7531C23.6609 27.5453 23.9281 27.3375 24.225 27.1297C24.3141 27.0407 24.4328 26.9813 24.5219 26.8922C25.2937 27.4266 26.2141 27.8125 27.1641 27.9906C27.1641 28.1094 27.1938 28.2578 27.2234 28.3766C27.2828 28.7328 27.3125 29.0891 27.3719 29.4453H29.6875C29.7469 29.0891 29.8062 28.7328 29.8359 28.3766C29.8656 28.2578 29.8656 28.1094 29.8953 27.9906C30.8453 27.8125 31.7656 27.4266 32.5375 26.8922C32.6266 26.9813 32.7453 27.0407 32.8344 27.1297C33.1016 27.3375 33.3984 27.575 33.6953 27.7531L35.3281 26.1203C35.1203 25.8235 34.9125 25.5563 34.7047 25.2594C34.6156 25.1703 34.5562 25.0516 34.4672 24.9625C35.0016 24.1906 35.3875 23.2703 35.5656 22.3203C35.6844 22.2906 35.8328 22.2906 35.9516 22.261C36.3078 22.2016 36.6641 22.1719 37.0203 22.1125V19.7969C36.6641 19.7375 36.3078 19.6781 35.9516 19.6485C35.7734 19.6188 35.6547 19.6188 35.5062 19.5891ZM32.4484 22.261C32.3891 22.4688 32.3 22.6766 32.2109 22.8547C31.825 23.6266 31.1719 24.2797 30.3703 24.6953C30.1922 24.7844 29.9844 24.8735 29.7766 24.9328C29.3609 25.0516 28.9453 25.1406 28.5 25.1406C28.0547 25.1406 27.6094 25.0813 27.2234 24.9328C27.0156 24.8735 26.8078 24.7844 26.6297 24.6953C25.8578 24.3094 25.2047 23.6563 24.7891 22.8547C24.7 22.6766 24.6109 22.4688 24.5516 22.261C24.4328 21.8453 24.3438 21.4297 24.3438 20.9844C24.3438 20.5391 24.4031 20.0938 24.5516 19.7078C24.6109 19.5 24.7 19.2922 24.7891 19.1141C25.175 18.3422 25.8281 17.6891 26.6 17.3031C26.7781 17.2141 26.9859 17.125 27.1937 17.0656C27.6094 16.9469 28.025 16.8578 28.4703 16.8578C28.9156 16.8578 29.3609 16.9172 29.7469 17.0656C29.9547 17.125 30.1625 17.2141 30.3406 17.3031C31.1125 17.6891 31.7656 18.3422 32.1516 19.1141C32.2406 19.2922 32.3297 19.5 32.3891 19.7078C32.5078 20.1235 32.5969 20.5391 32.5969 21.0141C32.6563 21.4 32.5969 21.8453 32.4484 22.261Z" fill="#FDBB3B"/>
<path d="M20.8703 17.0656C20.7516 16.9172 20.6625 16.7687 20.5437 16.6203L19.8609 15.6406C18.3766 16.4719 17.0109 17.4812 15.7641 18.6984C14.1016 20.3609 12.825 22.2609 11.9047 24.3984C11.0141 26.625 10.5391 29 10.5391 31.4047V42.3594C10.5391 43.1016 10.9547 43.8141 11.5781 44.2297L13.6266 45.5063H16.625C17.1594 45.5063 17.6047 45.0609 17.6047 44.5266V34.6406C17.6047 34.1063 17.1594 33.6609 16.625 33.6609H14.2797V31.4047C14.2797 27.3969 15.9422 23.775 18.6141 21.1922V18.6094L19.7719 18.4016C19.95 18.3719 20.1281 18.3422 20.3359 18.3125C20.4844 17.8969 20.6625 17.4812 20.8703 17.0656ZM45.0656 24.4281C44.175 22.2906 42.8688 20.3609 41.2063 18.7281C39.9891 17.5109 38.6234 16.4719 37.1094 15.6703L36.4266 16.6203C36.3078 16.7687 36.2188 16.9172 36.1 17.0656C36.3078 17.4812 36.4859 17.8969 36.6344 18.3125C36.8125 18.3422 37.0203 18.3719 37.1984 18.4016L38.3562 18.6094V21.1922C41.0281 23.775 42.6906 27.3969 42.6906 31.4047V33.6609H40.375C39.8406 33.6609 39.3953 34.1063 39.3953 34.6406V44.5266C39.3953 45.0609 39.8406 45.5063 40.375 45.5063H43.3734L45.4219 44.2297C46.075 43.8141 46.4609 43.1313 46.4609 42.3594V31.4047C46.4609 29 45.9859 26.625 45.0656 24.4281Z" fill="#010101"/>
</svg>
